<?xml version="1.0" standalone="no"?>
<!DOCTYPE svg PUBLIC "-//W3C//DTD SVG 20010904//EN"
 "http://www.w3.org/TR/2001/REC-SVG-20010904/DTD/svg10.dtd">
<svg version="1.0" xmlns="http://www.w3.org/2000/svg"
 width="50.000000pt" height="50.000000pt" viewBox="0 0 50.000000 50.000000"
 preserveAspectRatio="xMidYMid meet">

<g transform="translate(0.000000,50.000000) scale(0.100000,-0.100000)"
fill="#000000" stroke="none">
<path d="M62 437 c-21 -22 -22 -33 -22 -188 0 -221 -12 -209 211 -209 216 0
209 -6 209 174 0 82 -4 125 -10 121 -6 -4 -10 -56 -10 -124 0 -158 9 -151
-192 -151 -137 0 -157 2 -171 18 -14 16 -17 43 -17 174 0 199 -11 188 178 188
88 0 142 4 142 10 0 6 -56 10 -148 10 -142 0 -149 -1 -170 -23z"/>
<path d="M345 319 c-48 -57 -92 -108 -96 -113 -4 -5 -27 8 -51 28 -23 20 -44
32 -46 27 -3 -10 75 -86 89 -86 14 0 201 225 197 237 -2 6 -44 -36 -93 -93z"/>
</g>
</svg>
