<?xml version="1.0" standalone="no"?>
<!DOCTYPE svg PUBLIC "-//W3C//DTD SVG 20010904//EN"
 "http://www.w3.org/TR/2001/REC-SVG-20010904/DTD/svg10.dtd">
<svg version="1.0" xmlns="http://www.w3.org/2000/svg"
 width="50.000000pt" height="50.000000pt" viewBox="0 0 50.000000 50.000000"
 preserveAspectRatio="xMidYMid meet">

<g transform="translate(0.000000,50.000000) scale(0.100000,-0.100000)"
fill="#000000" stroke="none">
<path d="M227 292 c-147 -148 -190 -196 -198 -226 -6 -21 -8 -40 -6 -43 3 -2
22 0 43 6 30 8 78 51 226 198 103 103 188 195 188 205 0 21 -27 48 -48 48 -10
0 -102 -85 -205 -188z m230 152 c3 -8 1 -20 -6 -27 -14 -14 -47 15 -37 32 10
16 36 13 43 -5z m-379 -382 c2 -7 -3 -12 -12 -12 -9 0 -16 7 -16 16 0 17 22
14 28 -4z"/>
</g>
</svg>
