<?xml version="1.0" standalone="no"?>
<!DOCTYPE svg PUBLIC "-//W3C//DTD SVG 20010904//EN"
 "http://www.w3.org/TR/2001/REC-SVG-20010904/DTD/svg10.dtd">
<svg version="1.0" xmlns="http://www.w3.org/2000/svg"
 width="24.000000pt" height="24.000000pt" viewBox="0 0 24.000000 24.000000"
 preserveAspectRatio="xMidYMid meet">

<g transform="translate(0.000000,24.000000) scale(0.100000,-0.100000)"
fill="#000000" stroke="none">
<path d="M30 205 c10 -12 10 -21 1 -41 -31 -68 17 -144 90 -144 32 0 74 26 87
55 15 33 15 57 0 90 -16 36 -88 73 -88 45 0 -5 7 -10 15 -10 9 0 27 -11 40
-25 33 -32 33 -78 0 -110 -48 -49 -135 -15 -135 52 0 42 14 60 34 44 14 -12
16 -9 16 23 0 35 -1 36 -36 36 -32 0 -35 -2 -24 -15z"/>
</g>
</svg>
